<svg width="1440" height="237" viewBox="0 0 1440 237" fill="none" xmlns="http://www.w3.org/2000/svg">
<path d="M0 0V148.062C0 148.062 3.74754 237 131.633 237C259.519 237 257.645 151.599 323.695 181.414C389.746 211.228 382.251 146.041 466.571 148.062C550.891 150.083 499.362 191.52 591.178 191.52C682.993 191.52 609.447 102.582 731.711 102.582C853.975 102.582 779.492 226.893 900.351 226.893C1021.21 226.893 935.016 98.5395 1050.25 102.582C1165.49 106.625 1108.81 181.414 1189.38 181.414C1269.95 181.414 1225.92 128.354 1319.14 128.354C1412.36 128.354 1440 211.228 1440 211.228V0H0Z" fill="#FC6443" fill-opacity="0.82"/>
</svg>
